<svg xmlns="http://www.w3.org/2000/svg" viewBox="0 0 800 600">
  <defs>
    <linearGradient id="bg-gradient" x1="0%" y1="0%" x2="100%" y2="100%">
      <stop offset="0%" style="stop-color:#E8F5E9"/>
      <stop offset="100%" style="stop-color:#C8E6C9"/>
    </linearGradient>
  </defs>
  
  <rect width="100%" height="100%" fill="url(#bg-gradient)"/>
  
  <g opacity="0.1">
    <path d="M0,100 Q200,50 400,100 T800,100" fill="none" stroke="#4CAF50" stroke-width="2"/>
    <path d="M0,200 Q200,150 400,200 T800,200" fill="none" stroke="#4CAF50" stroke-width="2"/>
    <path d="M0,300 Q200,250 400,300 T800,300" fill="none" stroke="#4CAF50" stroke-width="2"/>
    <path d="M0,400 Q200,350 400,400 T800,400" fill="none" stroke="#4CAF50" stroke-width="2"/>
    <path d="M0,500 Q200,450 400,500 T800,500" fill="none" stroke="#4CAF50" stroke-width="2"/>
  </g>
  
  <circle cx="100" cy="100" r="20" fill="#4CAF50" opacity="0.2"/>
  <circle cx="700" cy="500" r="30" fill="#4CAF50" opacity="0.2"/>
  <circle cx="200" cy="400" r="15" fill="#4CAF50" opacity="0.2"/>
  <circle cx="600" cy="200" r="25" fill="#4CAF50" opacity="0.2"/>
  
  <path d="M50,550 L100,500 L150,550" fill="none" stroke="#4CAF50" stroke-width="2" opacity="0.2"/>
  <path d="M650,50 L700,0 L750,50" fill="none" stroke="#4CAF50" stroke-width="2" opacity="0.2"/>
</svg>
